<svg fill="none" viewBox="0 0 97 96" xmlns="http://www.w3.org/2000/svg" xmlns:xlink="http://www.w3.org/1999/xlink"><linearGradient id="a"><stop offset="0" stop-color="#9945ff"/><stop offset=".14" stop-color="#8a53f4"/><stop offset=".42" stop-color="#6377d6"/><stop offset=".79" stop-color="#24b0a7"/><stop offset=".99" stop-color="#00d18c"/><stop offset="1" stop-color="#00d18c"/></linearGradient><linearGradient id="b" gradientUnits="userSpaceOnUse" x1="3.41664" x2="103.05" xlink:href="#a" y1="98.0933" y2="8.42498"/><linearGradient id="c" gradientUnits="userSpaceOnUse" x1="25.9583" x2="67.2337" xlink:href="#a" y1="68.7101" y2="23.7879"/><linearGradient id="d" gradientUnits="userSpaceOnUse" x1="58.3326" x2="61.0002" xlink:href="#a" y1="49.4467" y2="45.4453"/><clipPath id="e"><path d="m24.5 24h48v48h-48z"/></clipPath><circle cx="48.5" cy="48" fill="url(#b)" fill-opacity=".1" r="48"/><circle cx="48.5" cy="48" r="47" stroke="url(#b)" stroke-opacity=".4" stroke-width="2"/><g clip-path="url(#e)"><path d="m65.5769 28.1523h-34.1538c-3.8174 0-6.9231 3.1057-6.9231 6.9231v25.8461c0 3.8174 3.1057 6.9231 6.9231 6.9231h34.1538c3.8174 0 6.9231-3.1057 6.9231-6.9231v-25.8461c0-3.8174-3.1057-6.9231-6.9231-6.9231zm4.1539 24h-10.1539c-2.2904 0-4.1538-1.8633-4.1538-4.1538s1.8633-4.1539 4.1538-4.1539h10.1539zm0-11.0769h-10.1539c-3.8174 0-6.923 3.1057-6.923 6.9231s3.1056 6.923 6.923 6.923h10.1539v6c0 2.2904-1.8634 4.1539-4.1539 4.1539h-34.1538c-2.2904 0-4.1539-1.8634-4.1539-4.1539v-25.8461c0-2.2904 1.8634-4.1539 4.1539-4.1539h34.1538c2.2904 0 4.1539 1.8634 4.1539 4.1539z" fill="url(#c)"/><path d="m61.4231 46.6172h-1.8461c-.7647 0-1.3846.6199-1.3846 1.3846s.6199 1.3845 1.3846 1.3845h1.8461c.7647 0 1.3846-.6199 1.3846-1.3845 0-.7647-.6199-1.3846-1.3846-1.3846z" fill="url(#d)"/></g></svg>