<svg height="600" viewBox="0 0 600 600" width="600" xmlns="http://www.w3.org/2000/svg"><g fill="#a6c1ee" stroke-linecap="round" stroke-linejoin="round" stroke-width="1.05103" transform="matrix(.95173205 0 0 .95115787 13.901174 12.168794)"><path d="m100.20313-12.792969c-61.17718 0-114.808599 47.647954-114.808599 109.326172v75.697267c0 61.67822 53.631422 109.32812 114.808599 109.32812h64.60742c61.17717 0 114.80859-47.6499 114.80859-109.32812v-75.697267c0-61.678218-53.63142-109.326172-114.80859-109.326172zm0 84.082031h64.60742c19.44882 0 30.72656 12.369078 30.72656 25.244141v75.697267c0 12.87507-11.27773 25.24609-30.72656 25.24609h-64.60742c-19.448836 0-30.726568-12.37102-30.726568-25.24609v-75.697267c0-12.875063 11.277735-25.244141 30.726568-25.244141z"/><path d="m100.20313 323.66406c-61.177177 0-114.808599 47.64991-114.808599 109.32813v75.69726c0 61.67822 53.631422 109.32617 114.808599 109.32617h64.60742c61.17717 0 114.80859-47.64795 114.80859-109.32617v-75.69726c0-61.67822-53.63142-109.32813-114.80859-109.32813zm0 84.08203h64.60742c19.44883 0 30.72656 12.37103 30.72656 25.2461v75.69726c0 12.87507-11.27773 25.24414-30.72656 25.24414h-64.60742c-19.448836 0-30.726568-12.36907-30.726568-25.24414v-75.69726c0-12.87507 11.277732-25.2461 30.726568-25.2461z"/><path d="m436.40625 323.66406c-61.17717 0-114.80859 47.64991-114.80859 109.32813v75.69726c0 61.67822 53.63142 109.32617 114.80859 109.32617h64.60937c61.17718 0 114.8086-47.64795 114.8086-109.32617v-75.69726c0-61.67822-53.63142-109.32813-114.8086-109.32813zm0 84.08203h64.60937c19.44883 0 30.72461 12.37103 30.72461 25.2461v75.69726c0 12.87507-11.27578 25.24414-30.72461 25.24414h-64.60937c-19.44883 0-30.72656-12.36907-30.72656-25.24414v-75.69726c0-12.87507 11.27773-25.2461 30.72656-25.2461z"/><path d="m468.71094-12.792969c-80.78689 0-147.11328 66.380994-147.11328 147.175779 0 80.79479 66.3264 147.17578 147.11328 147.17578s147.11328-66.38099 147.11328-147.17578-66.3264-147.175779-147.11328-147.175779zm0 84.082031c35.63232 0 63.02929 27.399051 63.02929 63.093748 0 35.6947-27.39697 63.09375-63.02929 63.09375-35.63233 0-63.03125-27.39905-63.03125-63.09375 0-35.694701 27.39893-63.093748 63.03125-63.093748z"/></g></svg>