<svg viewBox="0 -.5 21 21" xmlns="http://www.w3.org/2000/svg"><path d="m101.9 57.009c0 .551-.51765.991-1.09725.991h-3.15c-.57855 0-1.00275-.44-1.00275-.991v-3c0-.551.4242-1.009 1.00275-1.009h3.15c.5796 0 1.09725.458 1.09725 1.009zm-1.09725-6.009h-3.15c-1.73985 0-3.10275 1.352-3.10275 3.009v3c0 1.657 1.3629 2.991 3.10275 2.991h3.15c1.73985 0 3.19725-1.334 3.19725-2.991v-3c0-1.657-1.4574-3.009-3.19725-3.009zm-10.45275 6.009c0 .551-.51765.991-1.09725.991h-3.15c-.57855 0-1.00275-.44-1.00275-.991v-3c0-.551.4242-1.009 1.00275-1.009h3.15c.5796 0 1.09725.458 1.09725 1.009zm-1.09725-6.009h-3.15c-1.73985 0-3.10275 1.352-3.10275 3.009v3c0 1.657 1.3629 2.991 3.10275 2.991h3.15c1.73985 0 3.19725-1.334 3.19725-2.991v-3c0-1.657-1.4574-3.009-3.19725-3.009zm12.64725-4.991c0 .551-.51765.991-1.09725.991h-3.15c-.57855 0-1.00275-.44-1.00275-.991v-3c0-.551.4242-1.009 1.00275-1.009h3.15c.5796 0 1.09725.458 1.09725 1.009zm-1.09725-6.009h-3.15c-1.73985 0-3.10275 1.352-3.10275 3.009v3c0 1.657 1.3629 2.991 3.10275 2.991h3.15c1.73985 0 3.19725-1.334 3.19725-2.991v-3c0-1.657-1.4574-3.009-3.19725-3.009zm-10.45275 6.009c0 .551-.51765.991-1.09725.991h-3.15c-.57855 0-1.00275-.44-1.00275-.991v-3c0-.551.4242-1.009 1.00275-1.009h3.15c.5796 0 1.09725.458 1.09725 1.009zm-1.09725-6.009h-3.15c-1.73985 0-3.10275 1.352-3.10275 3.009v3c0 1.657 1.3629 2.991 3.10275 2.991h3.15c1.73985 0 3.19725-1.334 3.19725-2.991v-3c0-1.657-1.4574-3.009-3.19725-3.009z" fill="#a6c1ee" fill-rule="evenodd" transform="translate(-83 -40)"/></svg>
